<svg width="299" height="291" viewBox="0 0 299 291" fill="none" xmlns="http://www.w3.org/2000/svg">
<path d="M416.531 290.122C383.045 289.826 343.845 260.168 328.138 232.252C321.224 219.963 318.345 207.656 315.119 194.205C309.4 170.35 296.699 155.293 277.657 140.692C264.366 130.499 251.249 123.337 244.598 107C240.923 97.9731 239.416 87.1325 236.562 77.7807C228.435 51.1508 215.836 26.4605 215.695 -1.77087L416.531 -1.77087L416.531 290.122Z" fill="#395747"/>
<path d="M119.95 -18.3722C119.377 -7.57375 116.744 2.00262 113.262 10.744C109.712 19.6548 105.331 27.7765 101.211 36.1363C96.8973 44.8893 92.9368 53.9749 90.2558 64.1713C88.7907 69.7449 87.6684 75.5751 86.8827 81.6055C86.1569 87.1829 85.7736 92.9676 84.8246 98.4095C83.8788 103.838 82.308 108.778 79.5308 112.585C76.6927 116.476 72.9296 119.168 69.1055 121.595C68.1644 122.195 67.2138 122.776 66.2627 123.358C66.5786 123.714 66.8945 124.071 67.211 124.427C67.1627 117.761 67.1148 111.095 67.0662 104.428C67.0239 98.5632 66.7258 92.438 67.5806 87.013C67.9913 84.4058 68.709 82.0179 69.8163 79.9812C70.9309 77.9293 72.3505 76.2226 73.8739 74.6687C76.8336 71.6515 80.0167 68.9266 83.0987 66.0846C86.6189 62.8391 90.1486 59.5979 93.8541 56.6298C94.3682 56.2155 93.73 54.5517 93.1017 55.0544C89.761 57.731 86.5656 60.6344 83.387 63.554C80.2468 66.438 77.0606 69.2667 73.9835 72.2418C70.822 75.2986 68.0477 78.8992 66.8708 84.0762C65.6973 89.2431 65.8574 95.2017 65.8987 101.006C65.954 108.625 66.0089 116.242 66.0642 123.861C66.069 124.512 66.5346 125.224 67.0143 124.93C70.9127 122.547 74.8349 120.136 78.1016 116.742C81.3213 113.395 83.6266 109.071 84.9759 103.8C86.3 98.6247 86.8332 92.911 87.4356 87.2782C88.0842 81.2279 88.9646 75.3323 90.2364 69.6768C92.6568 58.9189 96.4331 49.3227 100.807 40.2339C104.895 31.7403 109.349 23.6006 113.094 14.7739C116.752 6.15263 119.727 -3.17455 120.789 -13.7501C120.923 -15.0851 121.024 -16.4378 121.096 -17.806C121.151 -18.846 120.004 -19.4147 119.95 -18.3722Z" fill="#FFDBC2"/>
<path d="M54.2709 124.429C54.3585 122.271 54.9079 120.365 55.55 118.588C56.2818 116.556 57.1894 114.677 58.1272 112.841C59.9647 109.243 62.0915 105.886 63.4113 101.797C64.9634 96.9855 65.6437 91.5257 67.0687 86.6168C68.4383 81.9064 70.1781 77.487 72.0977 73.2567C74.2379 68.5434 76.6097 64.0308 79.3278 59.9193C79.7376 59.2999 78.8673 57.8538 78.3786 58.5917C75.9457 62.2706 73.7966 66.2742 71.8344 70.4453C69.8147 74.7362 67.9782 79.2245 66.482 83.9835C64.9722 88.7877 64.1996 94.1086 62.8541 99.0299C61.6624 103.39 59.593 106.876 57.6706 110.554C56.5766 112.651 55.5221 114.794 54.6484 117.102C53.876 119.14 53.2239 121.356 53.1218 123.862C53.0795 124.907 54.2286 125.48 54.2709 124.429Z" fill="#FFDBC2"/>
<path d="M121.279 8.65089C115.452 13.5628 110.559 19.7868 105.243 25.4156C101.366 29.5198 97.1748 33.1407 92.6854 36.3144C87.9393 39.6715 82.9128 42.5673 77.6056 44.8834C72.2269 47.2283 66.5285 49.033 60.4553 49.6634C54.4338 50.2906 47.8686 49.8356 41.2385 46.6629C41.402 47.2387 41.5644 47.8145 41.7273 48.3918C44.0637 42.6336 49.8327 41.259 53.8762 37.8304C58.9005 33.5695 62.9416 27.9254 68.1332 23.9012C73.2011 19.972 78.9291 17.1548 84.9808 15.1048C90.5447 13.22 96.3373 11.8253 102.441 11.3974C108.853 10.9472 115.454 11.1454 121.831 10.5774C122.601 10.5073 122.42 8.47458 121.585 8.54726C115.822 9.0623 109.87 8.94033 104.047 9.2533C97.9448 9.5825 92.1634 10.702 86.5556 12.4209C80.3957 14.309 74.5329 16.9318 69.2699 20.6088C66.5431 22.5134 64.0137 24.7243 61.6514 27.1819C59.3133 29.618 57.0949 32.2196 54.6638 34.5272C52.3008 36.7691 49.6264 38.3673 46.9388 40.0735C44.4006 41.686 41.954 43.6215 40.6398 46.8565C40.4601 47.2995 40.4845 48.2772 41.1286 48.5853C47.0902 51.4385 53.026 52.1648 58.5368 51.8644C64.7026 51.5283 70.4948 49.9722 75.9584 47.7992C86.3068 43.6856 95.8779 37.4896 103.958 29.4421C110.14 23.2855 115.537 16.0377 122.137 10.4737C122.726 9.97771 121.997 8.04524 121.279 8.65089Z" fill="#FFDBC2"/>
<path d="M41.3761 49.4823C46.5657 48.1431 51.702 46.665 56.7801 45.0527C61.8778 43.4349 67.0889 41.8707 71.8429 39.4896C77.1181 36.8487 81.4405 32.5575 86.364 29.3004C91.3125 26.0273 96.6806 23.4937 101.958 20.8454C107.881 17.8728 113.811 14.8663 119.225 10.948C119.853 10.4941 119.13 8.5446 118.366 9.09712C108.776 16.0404 97.6349 20.1044 87.5642 26.1611C82.4917 29.2128 78.148 33.504 73.0488 36.5008C70.7306 37.864 68.2197 38.8359 65.6995 39.7795C63.1989 40.7174 60.6685 41.5861 58.1218 42.4167C52.4229 44.2748 46.6462 45.9535 40.8051 47.4622C40.0705 47.6528 40.5078 49.7063 41.3761 49.4823Z" fill="#FFDBC2"/>
<path d="M104.942 35.8805C108.876 46.6075 112.321 57.8712 114.016 69.1428C115.401 78.3629 116.582 87.7143 116.652 96.6754C116.691 101.596 116.361 106.445 115.273 110.676L116.043 110.768C113.897 105.9 113.055 100.46 112.143 95.2758C111.686 92.6781 111.208 90.0892 110.569 87.5067C109.844 84.5725 109.191 81.623 108.638 78.6698C107.684 73.5714 107.058 68.492 106.519 63.4249C106.027 58.8131 105.623 54.2102 105.404 49.6579C105.176 44.925 105.077 40.0879 105.747 35.7745C105.894 34.8254 105.009 34.3183 104.864 35.2523C104.264 39.1238 104.283 43.432 104.434 47.6682C104.599 52.322 104.984 57.043 105.465 61.771C105.972 66.7531 106.546 71.7653 107.403 76.7806C107.909 79.74 108.512 82.6947 109.202 85.64C109.84 88.3691 110.487 91.0583 110.984 93.8037C112.052 99.6923 112.869 105.953 115.314 111.501C115.555 112.047 115.955 112.097 116.084 111.594C118.119 103.692 117.748 93.9341 116.852 84.6122C115.882 74.5141 114.426 64.237 111.737 54.1487C110.02 47.7093 107.952 41.3693 105.67 35.1463C105.296 34.1284 104.635 35.0451 104.942 35.8805Z" fill="#FFDBC2"/>
<path d="M114.959 108.628C114.502 99.3089 113.129 89.8581 111.83 80.4418C110.513 70.9079 109.439 61.3889 108.286 51.8643C107.632 46.4654 106.96 41.0636 106.226 35.6594C106.172 35.2654 105.906 34.9468 105.677 35.0304C105.421 35.1224 105.355 35.5983 105.41 36.0002C106.699 45.493 107.8 54.9764 108.938 64.4599C109.51 69.2141 110.084 73.9669 110.731 78.7245C111.364 83.3711 112.036 88.0164 112.623 92.6603C113.295 97.9785 113.841 103.289 114.098 108.544C114.151 109.626 115.006 109.603 114.959 108.628Z" fill="#FFDBC2"/>
<path d="M130.453 5.49326C130.909 11.7938 132.101 18.2017 133.476 24.5602C134.861 30.9653 136.332 37.3449 137.615 43.7594C138.842 49.8903 140.322 56.0146 142.199 62.0272C143.96 67.6684 146.161 73.074 148.311 78.5265C150.355 83.7122 152.615 89.2415 155.907 93.1198C156.302 93.5855 156.556 92.9287 156.546 92.4805C156.475 89.339 155.793 86.0974 155.082 82.8987C154.363 79.6682 153.701 76.5071 153.506 73.305C153.322 70.2883 153.404 67.3589 153.229 64.3449C153.063 61.4888 152.738 58.5817 152.341 55.6828C151.52 49.6951 150.29 43.5911 148.419 37.7089C146.601 31.9958 144.076 26.5272 141.377 21.4001C138.273 15.5038 134.817 9.9297 131.092 4.85399C130.578 4.15372 130.241 5.57283 130.717 6.22179C133.958 10.6376 136.978 15.4612 139.747 20.519C142.504 25.5558 145.076 30.9049 147.044 36.526C149.033 42.2067 150.312 48.1899 151.207 54.0397C151.657 56.9783 151.998 59.9095 152.225 62.8163C152.455 65.7622 152.425 68.6146 152.524 71.5189C152.639 74.893 153.129 78.2125 153.886 81.6597C154.672 85.2423 155.563 88.8605 155.643 92.3901C155.856 92.1762 156.069 91.9635 156.281 91.7509C153.396 88.3524 151.35 83.5615 149.532 79.0183C147.462 73.8509 145.342 68.6702 143.59 63.3429C141.659 57.4679 140.134 51.4662 138.876 45.4479C138.222 42.3278 137.639 39.2067 136.962 36.0885C136.28 32.9499 135.558 29.8158 134.861 26.6795C133.301 19.651 131.861 12.5607 131.356 5.58365C131.277 4.49311 130.382 4.51087 130.453 5.49326Z" fill="#FFDBC2"/>
<path d="M154.154 91.1478C153.357 90.5036 152.658 88.4746 152.218 87.2066C151.423 84.92 150.778 82.5512 150.18 80.1908C149.018 75.6025 148.081 70.9747 147.086 66.3555C145.439 58.7037 143.776 51.0693 142.255 43.3995C141.096 37.5565 139.823 31.7238 138.352 25.9396C136.586 18.996 134.56 11.947 131.705 5.54422C131.532 5.15564 131.22 5.23948 131.091 5.47012C130.927 5.76125 130.96 6.23921 131.132 6.62332C133.67 12.314 135.515 18.586 137.135 24.745C138.709 30.7324 140.043 36.787 141.257 42.8453C141.931 46.2065 142.578 49.569 143.286 52.9261C144.168 57.1042 145.094 61.2774 145.999 65.4524C147.047 70.2895 148.018 75.1403 149.216 79.9504C149.884 82.6373 150.595 85.34 151.499 87.9406C152.081 89.6104 152.839 91.7694 153.99 92.7013C154.529 93.1377 154.703 91.5925 154.154 91.1478Z" fill="#FFDBC2"/>
</svg>
