<svg width="275" height="291" viewBox="0 0 275 291" fill="none" xmlns="http://www.w3.org/2000/svg">
<path d="M392.531 290.122C359.044 289.826 319.845 260.168 304.138 232.252C297.224 219.963 294.345 207.656 291.119 194.205C285.399 170.35 272.699 155.293 253.657 140.692C240.366 130.499 227.249 123.337 220.598 107C216.923 97.9731 215.416 87.1325 212.562 77.7807C204.435 51.1508 191.835 26.4605 191.694 -1.77087L392.531 -1.77087L392.531 290.122Z" fill="#395747"/>
<path d="M119.728 -18.2963C116.361 -7.90198 110.752 1.56042 104.299 10.3219C97.7209 19.2532 90.3096 27.5254 83.1629 35.9953C75.68 44.8636 68.5515 54.0093 62.7298 64.0703C59.548 69.5699 56.7264 75.2754 54.2713 81.1337C52.0017 86.5519 50.1041 92.1289 47.5922 97.4431C45.0876 102.744 41.931 107.65 37.5636 111.611C33.1002 115.659 27.7896 118.666 22.4687 121.428C21.1586 122.11 19.8415 122.775 18.5235 123.441C18.8259 123.746 19.1282 124.051 19.4315 124.355C21.0132 117.984 22.595 111.614 24.1764 105.242C25.568 99.6379 26.7078 93.8135 29.0993 88.5264C30.2484 85.9854 31.7227 83.6189 33.5919 81.5435C35.4737 79.4526 37.6473 77.6569 39.9115 75.9954C44.3099 72.7691 48.9123 69.7966 53.4187 66.7237C58.5657 63.2145 63.7233 59.7083 69.0308 56.4431C69.7678 55.9878 69.3892 54.4698 68.4894 55.0229C63.7042 57.9673 59.0427 61.1119 54.3979 64.2701C49.8092 67.3898 45.1774 70.4619 40.6443 73.6615C35.9868 76.9489 31.6738 80.712 28.9456 85.7991C26.2241 90.8761 24.9548 96.5569 23.5769 102.104C21.7694 109.384 19.9619 116.664 18.1544 123.945C18 124.567 18.3998 125.195 19.0647 124.859C24.4666 122.13 29.9045 119.374 34.7749 115.751C39.5758 112.179 43.4877 107.779 46.4521 102.581C49.3615 97.4792 51.4268 91.9528 53.5577 86.4959C55.8483 80.6343 58.3872 74.8941 61.3504 69.3385C66.9885 58.7703 74.0152 49.1574 81.6549 39.9611C88.7957 31.3668 96.3013 23.069 103.1 14.1957C109.74 5.52891 115.711 -3.73454 119.626 -13.972C120.121 -15.2643 120.578 -16.5697 121.005 -17.8867C121.328 -18.8878 120.052 -19.2998 119.728 -18.2963Z" fill="#FFDBC2"/>
<path d="M19.4157 124.354C20.0552 122.282 21.2017 120.398 22.431 118.625C23.8334 116.6 25.415 114.7 27.0235 112.837C30.1748 109.188 33.6236 105.735 36.2575 101.677C39.3559 96.9 41.5389 91.6042 44.5045 86.7493C47.3529 82.0906 50.5862 77.6674 53.9945 73.4042C57.7936 68.6541 61.8289 64.0693 66.1924 59.828C66.8502 59.189 66.1333 57.907 65.3491 58.6683C61.4437 62.4634 57.8084 66.5362 54.3621 70.7478C50.8155 75.0803 47.446 79.5805 44.4296 84.3002C41.3853 89.0647 39.1226 94.2384 36.2519 99.096C33.7091 103.399 30.2995 106.968 27.0236 110.704C25.1586 112.834 23.3309 115.003 21.6854 117.309C20.2311 119.346 18.8817 121.538 18.1386 123.945C17.8291 124.948 19.1047 125.364 19.4157 124.354Z" fill="#FFDBC2"/>
<path d="M104.364 8.6224C97.1439 13.2467 90.6499 18.8618 83.8266 24.0274C78.8512 27.7939 73.6398 31.1925 68.2021 34.2514C62.4531 37.4869 56.4997 40.3694 50.366 42.801C44.1501 45.2635 37.7042 47.3117 31.0995 48.4279C24.5506 49.5362 17.6441 49.8052 11.2257 47.8385C11.2819 48.2975 11.337 48.7566 11.3923 49.2169C15.0645 44.237 21.4976 42.5367 26.5122 39.3113C32.7432 35.3028 38.2096 30.2498 44.5705 26.4202C50.78 22.6812 57.4652 19.7948 64.3382 17.5096C70.6571 15.4085 77.1194 13.6893 83.7152 12.7372C90.6436 11.7365 97.6419 11.2521 104.557 10.1576C105.393 10.0242 105.617 8.36499 104.711 8.5069C98.4616 9.4974 92.1398 9.98102 85.8676 10.8107C79.2935 11.6812 72.8995 13.1723 66.5678 15.1408C59.6127 17.3031 52.8237 20.0423 46.4579 23.5924C43.1598 25.4313 40.0094 27.5036 36.9865 29.7631C33.9938 32.0024 31.0949 34.3664 28.0295 36.5088C25.0501 38.5903 21.8708 40.1713 18.6552 41.8427C15.6181 43.4222 12.6125 45.2591 10.5477 48.057C10.2653 48.4401 10.0906 49.2443 10.7143 49.4353C16.4852 51.2041 22.6651 51.2207 28.6025 50.4319C35.2456 49.5495 41.7405 47.6972 48.0116 45.3682C59.8891 40.9588 71.365 34.9076 81.6306 27.4754C89.485 21.7894 96.7265 15.2802 104.904 10.0421C105.634 9.57508 105.254 8.05228 104.364 8.6224Z" fill="#FFDBC2"/>
<path d="M11.0709 49.4308C16.8334 47.8386 22.5671 46.1389 28.2659 44.3358C33.9865 42.5262 39.8166 40.7493 45.3253 38.3533C51.4378 35.6956 56.87 31.7903 62.7327 28.6664C68.6251 25.527 74.8145 22.9475 80.9306 20.2836C87.7951 17.2936 94.6738 14.2754 101.187 10.5668C101.943 10.1372 101.566 8.62406 100.647 9.14706C89.1081 15.7184 76.5001 20.1021 64.629 26.0001C58.6494 28.9717 53.1947 32.8791 47.1977 35.8087C44.4713 37.1412 41.6187 38.1747 38.7618 39.186C35.9269 40.1908 33.0742 41.1423 30.2118 42.0645C23.8066 44.1275 17.3548 46.0525 10.8686 47.8456C10.0528 48.0719 10.1068 49.6971 11.0709 49.4308Z" fill="#FFDBC2"/>
<path d="M84.2406 36.2988C88.4053 46.6196 91.7124 57.5491 92.2998 68.7218C92.7793 77.8612 92.917 87.1608 91.4027 96.2147C90.5699 101.186 89.1796 106.135 86.7222 110.561L87.9012 110.55C85.4523 105.915 85.1304 100.526 84.6548 95.405C84.4168 92.839 84.144 90.2847 83.6201 87.7586C83.0254 84.8883 82.5466 81.9929 82.2237 79.0802C81.6665 74.0518 81.6147 68.9984 81.6962 63.9459C81.7694 59.3474 81.9766 54.7463 82.4607 50.1714C82.965 45.4151 83.6889 40.536 85.5106 36.0833C85.9109 35.1035 84.6287 34.7096 84.2341 35.6738C82.6002 39.6702 81.8497 44.025 81.3153 48.2893C80.7282 52.9741 80.4709 57.6972 80.3597 62.4148C80.244 67.3856 80.2269 72.3779 80.649 77.3353C80.8974 80.2606 81.2981 83.1681 81.8348 86.0543C82.3316 88.7288 82.8477 91.3619 83.1229 94.0718C83.7134 99.8842 83.8466 106.106 86.6366 111.39C86.9119 111.91 87.524 111.907 87.8158 111.38C92.407 103.114 93.6003 93.2949 93.8986 83.9869C94.2229 73.9038 93.8252 63.7049 91.4794 53.8626C89.9808 47.5803 87.92 41.4457 85.504 35.4583C85.1087 34.4789 83.9165 35.495 84.2406 36.2988Z" fill="#FFDBC2"/>
<path d="M88.1525 108.521C88.8759 99.1265 88.1522 89.7209 87.5401 80.3407C86.9196 70.8434 86.6838 61.3289 86.3245 51.8191C86.1198 46.4287 85.8854 41.0379 85.554 35.6527C85.5287 35.2602 85.1516 34.9725 84.7727 35.0878C84.3477 35.2152 84.1672 35.7069 84.1924 36.1074C84.7768 45.5665 85.0595 55.0415 85.403 64.5114C85.5759 69.2587 85.7542 74.0042 86.0479 78.7449C86.3364 83.3748 86.6889 87.9981 86.9039 92.6315C87.1492 97.9377 87.1954 103.252 86.7873 108.55C86.703 109.641 88.0769 109.503 88.1525 108.521Z" fill="#FFDBC2"/>
<path d="M106.954 7.00881C106.46 13.3103 107.072 19.6216 107.975 25.8583C108.884 32.1409 109.929 38.3862 110.679 44.692C111.398 50.7188 112.506 56.7051 114.243 62.5253C115.872 67.986 118.22 73.1499 120.481 78.3681C122.631 83.3308 125.045 88.6118 129.355 92.0869C129.872 92.5043 130.384 91.807 130.455 91.3557C130.94 88.1928 130.509 85.0108 130.025 81.8759C129.536 78.7099 129.12 75.6064 129.428 72.3989C129.717 69.3772 130.397 66.408 130.7 63.3877C130.986 60.5257 131.04 57.6335 130.981 54.7593C130.857 48.8227 130.128 42.8234 128.375 37.134C126.673 31.6083 123.841 26.4242 120.677 21.6083C117.038 16.0699 112.799 10.9041 108.054 6.2776C107.399 5.63935 106.614 7.11758 107.22 7.70913C111.349 11.7342 115.062 16.2005 118.346 20.9371C121.616 25.654 124.543 30.7111 126.494 36.1237C128.465 41.5938 129.291 47.4644 129.555 53.2519C129.687 56.1592 129.654 59.0736 129.452 61.9785C129.247 64.9226 128.66 67.8072 128.262 70.7268C127.799 74.1187 127.921 77.4052 128.428 80.785C128.954 84.2975 129.634 87.8318 129.088 91.3855C129.455 91.141 129.821 90.8976 130.187 90.6544C126.411 87.6091 124.183 83.0452 122.258 78.7011C120.067 73.76 117.799 68.8125 116.125 63.6675C114.279 57.9934 113.08 52.137 112.291 46.2281C111.881 43.1648 111.579 40.0911 111.132 37.033C110.681 33.9549 110.168 30.8867 109.695 27.8129C108.635 20.9243 107.773 13.9571 108.321 6.97904C108.406 5.88835 107.031 6.02631 106.954 7.00881Z" fill="#FFDBC2"/>
<path d="M130.119 90.2133C128.953 89.6667 128.168 87.7027 127.671 86.4758C126.773 84.2635 126.128 81.9476 125.557 79.6341C124.447 75.1367 123.703 70.569 122.864 66.018C121.476 58.4789 120.059 50.9597 118.874 43.3855C117.972 37.6154 116.886 31.8709 115.477 26.2021C113.786 19.3971 111.696 12.5201 108.182 6.40925C107.969 6.03842 107.459 6.16509 107.217 6.41623C106.908 6.73343 106.883 7.21373 107.095 7.58025C110.219 13.0113 112.146 19.1247 113.731 25.1536C115.272 31.0146 116.419 36.9759 117.374 42.9571C117.905 46.2754 118.393 49.5986 118.978 52.9082C119.709 57.0271 120.51 61.135 121.278 65.2477C122.166 70.0127 122.929 74.8018 124.06 79.5193C124.691 82.1545 125.387 84.8002 126.407 87.3163C127.064 88.9318 127.923 91.0197 129.607 91.8106C130.395 92.1811 130.922 90.5909 130.119 90.2133Z" fill="#FFDBC2"/>
</svg>
