<svg width="428" height="926" viewBox="0 0 428 926" fill="none" xmlns="http://www.w3.org/2000/svg">
<g clip-path="url(#clip0_538_1256)">
<rect width="428" height="926" fill="white"/>
<path d="M433.76 247.458C403.639 247.191 368.38 220.483 354.251 195.344C348.032 184.278 345.442 173.195 342.54 161.082C337.396 139.6 325.972 126.041 308.844 112.892C296.889 103.714 285.091 97.264 279.108 82.5521C275.802 74.4228 274.446 64.6606 271.88 56.239C264.569 32.2581 253.236 10.0239 253.109 -15.3992H433.76V247.458Z" fill="#395747"/>
<path d="M442.308 148.242C439.542 152.753 434.702 155.804 430.27 158.475C427.918 159.891 425.518 161.223 423.133 162.581C420.724 163.953 418.4 165.447 416.033 166.888C403.667 174.42 390.215 179.949 376.902 185.541C370.028 188.427 363.236 191.404 356.063 193.489C348.924 195.564 341.615 197.002 334.265 198.09C326.942 199.173 319.573 199.917 312.208 200.646C305.096 201.349 297.989 202.271 290.861 202.787C277.927 203.722 264.523 202.983 252.389 198.042C250.888 197.43 249.415 196.755 247.967 196.027C247.917 196.693 247.869 197.36 247.821 198.025C253.455 195.567 259.713 195.255 265.622 193.775C271.797 192.228 277.647 189.289 283.403 186.631C289.36 183.88 295.345 181.183 301.389 178.627C307.468 176.057 313.648 173.603 320.004 171.805C332.578 168.245 345.776 168.044 358.536 165.439C371.475 162.8 383.92 158.277 396.407 154.069C402.689 151.953 408.999 149.878 415.435 148.275C421.615 146.737 427.88 145.588 434.15 144.485C435.739 144.206 437.328 143.929 438.917 143.649C440.007 143.458 440.027 141.291 438.832 141.501C432.55 142.606 426.256 143.665 420.025 145.033C413.631 146.439 407.369 148.287 401.147 150.313C388.448 154.45 375.926 159.214 362.911 162.305C350.166 165.332 337.002 165.694 324.238 168.564C317.917 169.985 311.781 172.199 305.772 174.598C299.616 177.054 293.548 179.745 287.517 182.487C281.549 185.201 275.647 188.086 269.505 190.394C263.646 192.595 257.32 192.884 251.329 194.587C249.953 194.98 248.6 195.445 247.287 196.018C246.597 196.32 246.41 197.647 247.141 198.014C259.003 203.973 272.333 205.651 285.47 205.224C292.466 204.997 299.403 204.084 306.361 203.383C313.887 202.625 321.422 201.938 328.929 200.982C336.35 200.037 343.745 198.821 351.009 197.018C358.426 195.178 365.511 192.592 372.536 189.611C386.065 183.869 399.804 178.461 412.62 171.209C415.463 169.601 418.189 167.814 420.99 166.141C423.275 164.774 425.612 163.498 427.92 162.173C432.676 159.442 437.654 156.55 441.391 152.463C442.209 151.568 442.958 150.624 443.594 149.589C443.866 149.145 443.957 148.471 443.548 148.067C443.18 147.704 442.579 147.803 442.308 148.242Z" fill="#FFDBC2"/>
<path d="M247.361 198.093C258.845 199.076 270.558 198.187 281.967 196.771C286.601 196.196 291.241 195.518 295.804 194.511C302.336 193.07 308.773 191.043 315.212 189.234C322.739 187.119 330.264 185 337.833 183.041C345.475 181.065 353.185 179.432 360.87 177.641C375.925 174.132 390.802 169.675 405.072 163.701C408.106 162.43 411.096 161.066 414.148 159.84C417.043 158.676 419.96 157.563 422.858 156.403C428.624 154.095 434.423 151.64 439.582 148.137C440.714 147.369 441.801 146.545 442.835 145.651C443.684 144.918 442.933 143.021 441.895 143.918C437.381 147.821 431.842 150.408 426.392 152.725C420.768 155.116 414.994 157.143 409.396 159.594C395.288 165.772 380.71 170.582 365.767 174.294C358.193 176.175 350.538 177.699 342.963 179.572C335.433 181.434 327.953 183.49 320.482 185.581C313.012 187.673 305.555 189.822 298.053 191.8C294.077 192.848 289.989 193.499 285.924 194.082C274.621 195.703 263.051 196.697 251.627 196.199C250.332 196.142 249.037 196.059 247.744 195.949C246.598 195.851 246.225 197.997 247.361 198.093Z" fill="#FFDBC2"/>
<path d="M434.827 164.451C428.223 170.631 422.781 177.989 415.689 183.657C407.841 189.927 399.073 195.043 390.55 200.321C386.336 202.931 382.117 205.543 378.063 208.399C374.078 211.208 370.23 214.208 366.509 217.357C359.523 223.269 353.018 229.71 346.725 236.349C341.253 242.122 335.686 248.307 332.391 255.637C332.024 256.452 331.695 257.282 331.407 258.128C331.257 258.569 331.302 259.337 331.822 259.541C335.127 260.834 339.129 259.511 342.311 258.442C346.065 257.18 349.663 255.492 353.423 254.254C355.862 253.451 358.378 252.866 360.834 252.111C363.681 251.235 366.502 250.28 369.295 249.242C374.881 247.163 380.335 244.72 385.562 241.852C395.249 236.538 404.085 229.798 411.613 221.703C418.66 214.123 424.59 205.559 429.597 196.515C434.602 187.474 438.726 177.964 442.245 168.254C442.679 167.058 443.102 165.857 443.519 164.657C443.685 164.177 443.603 163.499 443.103 163.245C442.615 162.999 442.098 163.392 441.939 163.851C438.624 173.422 434.783 182.834 430.089 191.817C425.399 200.794 419.872 209.393 413.243 217.067C406.285 225.122 398.154 231.997 389.047 237.508C378.945 243.622 367.918 247.985 356.569 251.169C354.683 251.698 352.834 252.225 351 252.921C349.133 253.629 347.286 254.39 345.423 255.107C343.543 255.829 341.644 256.516 339.701 257.051C338.024 257.514 336.239 257.937 334.487 257.867C333.838 257.842 333.166 257.757 332.571 257.525C332.71 257.994 332.849 258.465 332.987 258.936C334.215 255.336 336.21 252.056 338.424 248.984C340.78 245.717 343.424 242.672 346.159 239.721C352.184 233.218 358.474 226.926 365.146 221.088C368.826 217.869 372.626 214.785 376.568 211.893C380.548 208.973 384.71 206.322 388.897 203.711C397.368 198.425 405.961 193.319 414.008 187.391C417.71 184.664 421.078 181.619 424.252 178.292C427.342 175.052 430.277 171.666 433.429 168.485C434.216 167.692 435.016 166.911 435.833 166.147C436.651 165.38 435.829 163.514 434.827 164.451Z" fill="#B4CCCE"/>
<path d="M333.249 259.782C341.448 253.53 350.412 248.392 359.334 243.263C368.27 238.127 377.224 232.958 385.429 226.687C389.586 223.507 393.394 219.998 397.107 216.316C400.938 212.518 404.775 208.722 408.516 204.835C412.244 200.963 415.876 196.997 419.308 192.86C422.515 188.995 425.401 184.887 428.586 181.005C434.6 173.679 441.336 166.797 446.22 158.62C446.788 157.669 447.324 156.698 447.826 155.711C448.066 155.238 448.15 154.598 447.723 154.192C447.358 153.846 446.722 153.957 446.491 154.415C442.214 162.835 435.58 169.821 429.533 176.973C428.025 178.756 426.532 180.553 425.099 182.398C423.576 184.354 422.135 186.374 420.601 188.321C417.271 192.547 413.703 196.58 410.021 200.502C406.333 204.429 402.528 208.243 398.706 212.037C394.989 215.728 391.314 219.438 387.252 222.756C379.288 229.263 370.421 234.538 361.532 239.664C352.654 244.786 343.678 249.792 335.349 255.787C334.302 256.54 333.268 257.305 332.245 258.085C331.346 258.771 332.16 260.611 333.249 259.782Z" fill="#B4CCCE"/>
<path d="M419.87 -9.7033C414.814 -3.47381 408.67 1.84178 401.775 5.94576C394.988 9.98497 387.598 12.7228 379.874 14.3138C372.577 15.8174 365.145 16.5023 357.792 17.6676C350.505 18.8229 343.218 20.4982 336.586 23.8277C328.926 27.6733 322.396 33.3671 316.137 39.1379C315.344 39.8699 314.554 40.6039 313.764 41.3378C313.275 41.7926 313.701 42.9361 314.423 42.6377C317.669 41.2916 321.243 41.3324 324.694 41.4305C328.23 41.5312 331.732 41.6004 335.192 40.7411C342.205 38.9973 348.171 34.4579 352.804 29.0372C355.512 25.8671 357.825 22.3718 359.771 18.688C360.132 18.0051 359.215 16.9155 358.772 17.7542C355.402 24.1315 350.894 30.1122 345.032 34.4014C342.185 36.4851 338.981 38.1568 335.568 39.0904C332.16 40.0234 328.712 40.0567 325.207 39.9555C321.385 39.8431 317.495 39.7511 313.896 41.2428C314.115 41.6751 314.334 42.1073 314.555 42.5413C320.839 36.6966 327.208 30.7718 334.713 26.5065C341.365 22.7267 348.712 20.7387 356.208 19.4587C363.548 18.2053 370.978 17.5398 378.297 16.1625C385.916 14.7281 393.271 12.3271 400.089 8.60297C407.078 4.78361 413.429 -0.240375 418.714 -6.20175C419.38 -6.95331 420.028 -7.72083 420.66 -8.50008C420.904 -8.80064 420.945 -9.22394 420.725 -9.55403C420.552 -9.8143 420.113 -10.0019 419.87 -9.7033Z" fill="#FBFBFB"/>
<path d="M411.706 -0.940015C406.66 3.84259 402.754 9.65141 399.488 15.7565C396.153 21.9909 393.432 28.5242 390.508 34.9544C387.434 41.7174 384.066 48.321 379.777 54.4072C377.478 57.6699 374.959 60.77 372.255 63.7069C369.75 66.428 367.13 69.0501 364.874 71.9894C362.67 74.8625 360.954 78.0274 360.022 81.5396C359.096 85.0252 358.83 88.6441 358.708 92.2362C358.678 93.1216 358.657 94.0093 358.636 94.8958C358.624 95.4247 359.113 96.041 359.637 95.6114L369.301 87.6629C372.176 85.2995 375.236 83.0172 377.588 80.1033C379.849 77.3025 381.044 74.0482 381.719 70.5431C382.366 67.189 382.807 63.7876 383.333 60.4128C383.942 56.498 384.547 52.5786 384.973 48.6383C385.068 47.7562 383.869 47.4303 383.764 48.4085C383.033 55.1744 381.92 61.9265 380.809 68.6382C380.237 72.0923 379.342 75.4765 377.234 78.3356C375.07 81.2735 372.081 83.5264 369.285 85.8249C365.805 88.6856 362.324 91.5475 358.844 94.4082C359.177 94.647 359.511 94.8859 359.844 95.1244C359.927 91.5863 360.011 88.0219 360.634 84.5287C361.275 80.9342 362.606 77.6062 364.664 74.5861C366.722 71.564 369.285 68.9279 371.78 66.2699C374.42 63.4572 376.931 60.5426 379.243 57.4522C383.723 51.4623 387.303 44.94 390.455 38.1718C393.399 31.8521 396.053 25.3971 399.198 19.1705C402.297 13.0337 405.906 7.08381 410.667 2.08434C411.261 1.46125 411.872 0.85635 412.497 0.263483C413.05 -0.260022 412.358 -1.55836 411.706 -0.940015Z" fill="#FBFBFB"/>
<path d="M359.637 95.6107C361.776 93.6286 363.058 90.7735 364.22 88.1526C365.438 85.4065 366.44 82.5234 368 79.944C369.913 76.7803 372.426 74.0299 374.429 70.9239C376.269 68.0728 377.88 65.0712 379.359 62.0182C381.022 58.5823 382.53 55.0585 383.758 51.4428C384.022 50.6622 382.933 49.9054 382.617 50.8389C380.451 57.2205 377.51 63.4552 373.948 69.176C372.098 72.1438 369.82 74.789 367.861 77.6777C366.109 80.2587 364.984 83.1149 363.765 85.9669C362.521 88.8781 361.217 92.2135 358.846 94.4081C358.287 94.926 358.976 96.2215 359.637 95.6107Z" fill="#FBFBFB"/>
<path d="M316.615 41.2263C319.01 39.2529 321.897 38.0382 324.813 37.0496C327.793 36.0401 330.824 35.199 333.775 34.1027C339.664 31.9138 345.312 29.078 350.587 25.6675C353.522 23.7682 356.341 21.6914 359.03 19.4585C359.616 18.9723 358.931 17.6804 358.238 18.2556C353.383 22.2864 348.092 25.775 342.472 28.6492C339.693 30.0699 336.839 31.3408 333.923 32.4535C330.977 33.5765 327.957 34.4474 324.963 35.4274C321.694 36.4993 318.503 37.8173 315.824 40.0237C315.236 40.5074 315.919 41.7988 316.615 41.2263Z" fill="#FBFBFB"/>
<path d="M404.827 13.4003C403.136 18.5239 400.725 23.3601 398.651 28.3304C397.133 31.9677 395.884 35.6969 394.879 39.5078C392.742 47.6058 391.386 56.1816 392.121 64.5684C392.492 68.8193 393.484 73.1233 395.726 76.7976C395.889 77.0669 396.345 77.2395 396.581 76.9469C397.995 75.1981 398.686 73.0902 399.191 70.927C399.718 68.663 400.195 66.4411 401.021 64.2601C401.992 61.6978 403.176 59.2229 404.166 56.6672C405.048 54.3888 405.756 52.0466 406.305 49.6676C407.412 44.8706 407.9 39.9518 407.996 35.0352C408.098 29.703 407.659 24.4141 407.137 19.1127C407.002 17.7347 406.811 16.359 406.892 14.9725C406.967 13.6925 407.186 12.4257 407.438 11.1703C407.931 8.71475 408.59 6.24616 408.627 3.72893C408.632 3.38127 408.468 2.93771 408.076 2.87034C407.712 2.80928 407.424 3.15597 407.418 3.49998C407.354 7.90303 405.419 12.0918 405.685 16.5248C405.844 19.1662 406.207 21.7992 406.429 24.436C406.652 27.1002 406.793 29.7668 406.805 32.4417C406.825 37.3014 406.524 42.1913 405.607 46.9712C405.155 49.3207 404.561 51.6448 403.8 53.9132C402.974 56.383 401.905 58.7559 400.893 61.1516C399.822 63.6835 398.953 66.2123 398.367 68.8984C397.849 71.2688 397.356 73.8091 395.791 75.7436C396.076 75.7939 396.362 75.8435 396.646 75.8929C394.742 72.7713 393.845 69.1442 393.43 65.5421C392.958 61.4486 393.104 57.2975 393.55 53.2077C394.399 45.4115 396.302 37.6284 399.215 30.3436C401.404 24.8707 404.116 19.612 405.968 14.0042C406.225 13.2223 405.136 12.4637 404.827 13.4003Z" fill="#FBFBFB"/>
<path d="M396.79 76.4606C396.88 71.5975 397.077 66.734 397.412 61.8827C397.575 59.5092 397.743 57.1221 398.065 54.7641C398.43 52.0877 399.208 49.4968 399.982 46.9167C401.2 42.8569 402.087 38.7314 402.984 34.5909C403.993 29.9253 404.96 25.2502 405.852 20.5614C406.916 14.9751 407.891 9.36875 408.626 3.72966C408.742 2.84854 407.545 2.52691 407.418 3.50014C406.135 13.335 404.184 23.0811 402.104 32.7737C401.24 36.8005 400.445 40.8651 399.287 44.8187C398.525 47.4137 397.682 49.9913 397.17 52.6508C396.714 55.0113 396.526 57.4207 396.338 59.815C395.91 65.2761 395.682 70.7551 395.581 76.2308C395.574 76.5796 395.741 77.0237 396.131 77.09C396.496 77.1513 396.784 76.8029 396.79 76.4606Z" fill="#FBFBFB"/>
<path d="M391.118 33.3785C383.622 33.8426 376.036 34.9998 369.011 37.7509C362.791 40.1867 356.542 43.1024 351.069 46.9568C348.071 49.0683 345.306 51.5094 343.164 54.5052C342.919 54.8494 343.104 55.6968 343.611 55.7148C347.051 55.8524 350.325 54.6873 353.51 53.5171C355.13 52.9224 356.746 52.2999 358.41 51.8359C360.254 51.3213 362.113 50.8886 363.94 50.3026C367.449 49.1742 370.808 47.692 374.117 46.0775C377.154 44.5965 380.152 43.0268 383.044 41.2778C386.102 39.4302 389.202 37.3853 391.624 34.7269C392.133 34.167 391.432 32.8656 390.832 33.5239C388.744 35.8166 386.148 37.6194 383.533 39.2571C380.679 41.047 377.704 42.6417 374.687 44.142C371.586 45.6853 368.445 47.1556 365.176 48.313C361.746 49.529 358.174 50.2321 354.752 51.4723C351.227 52.7497 347.547 54.38 343.718 54.2274C343.866 54.6319 344.015 55.0345 344.163 55.439C348.007 50.0604 353.982 46.4554 359.783 43.5301C365.897 40.448 372.213 37.8107 378.943 36.4419C383.028 35.6105 387.178 35.1308 391.336 34.8734C392.124 34.824 391.917 33.3282 391.118 33.3785Z" fill="#FBFBFB"/>
<path d="M343.927 55.6701C349.104 52.6945 354.691 50.4003 360.184 48.085C366.3 45.5067 372.427 42.9608 378.516 40.3173C382.824 38.4451 387.135 36.5808 391.492 34.8231C392.201 34.5369 391.749 33.112 390.963 33.4279C383.516 36.4332 376.207 39.762 368.804 42.8746C363.177 45.2393 357.515 47.5218 351.95 50.0332C349.054 51.3411 346.159 52.689 343.4 54.2738C342.736 54.6571 343.2 56.0874 343.927 55.6701Z" fill="#FBFBFB"/>
<path d="M233.334 980.736C243.427 975.782 246.419 953.189 248.171 943.258C253.355 913.881 255.053 877.829 240.369 850.594C221.86 816.266 185.575 795.726 148.206 788.191C135.99 785.728 120.31 785.717 110.185 777.812C100.435 770.2 96.0892 756.696 87.1237 748.225C77.9267 739.537 67.1821 740.712 56.34 735.528C38.2312 726.871 23.22 709.959 6.32204 699.019C-12.8767 686.59 -39.8423 675.352 -63.6142 679.54L-94.9337 967.141L221.267 1001.57L233.334 980.736Z" fill="#395747"/>
<path d="M434.652 910.224C426.321 904.136 419.486 896.346 413.513 887.983C407.467 879.515 402.244 870.502 396.799 861.646C391.104 852.383 385.092 843.332 377.886 835.16C373.984 830.736 369.807 826.552 365.382 822.65C361.194 818.959 356.731 815.587 352.618 811.809C348.485 808.015 344.762 803.746 342.34 798.642C339.793 793.273 338.554 787.409 337.597 781.58C337.358 780.12 337.135 778.657 336.913 777.194C336.578 777.47 336.244 777.748 335.911 778.024C341.162 781.325 346.413 784.626 351.664 787.926C356.241 790.803 361.038 793.528 365.086 797.145C367.085 798.932 368.828 800.963 370.2 803.272C371.616 805.651 372.631 808.246 373.493 810.87C375.127 815.848 376.454 820.943 377.908 825.977C379.535 831.609 381.155 837.249 382.516 842.954C382.601 843.315 383.04 843.398 383.323 843.228C383.672 843.017 383.755 842.582 383.667 842.218C382.451 837.121 381.026 832.077 379.579 827.042C378.126 821.979 376.721 816.896 375.187 811.859C373.585 806.59 371.446 801.553 367.584 797.531C363.852 793.644 359.145 790.868 354.618 788.022C348.639 784.264 342.662 780.507 336.684 776.749C336.157 776.418 335.6 777.045 335.681 777.58C336.574 783.472 337.485 789.419 339.441 795.071C341.322 800.512 344.291 805.317 348.222 809.512C352.011 813.558 356.366 817.002 360.623 820.532C365.192 824.322 369.562 828.334 373.645 832.647C381.352 840.785 387.809 849.888 393.746 859.368C399.315 868.26 404.521 877.383 410.444 886.051C416.25 894.548 422.812 902.643 430.834 909.156C431.829 909.964 432.845 910.743 433.88 911.499C434.56 911.997 435.275 910.679 434.652 910.224Z" fill="#B4CCCE"/>
<path d="M338.634 781.665C342.242 784.225 344.36 788.18 346.407 791.988C347.464 793.955 348.52 795.93 349.788 797.773C351.184 799.803 352.816 801.657 354.509 803.444C357.814 806.934 361.241 810.254 364.244 814.019C367.218 817.745 369.954 821.662 372.523 825.676C375.326 830.055 377.952 834.564 380.23 839.239C380.646 840.092 381.725 839.207 381.382 838.503C377.243 830.01 372.13 821.891 366.363 814.411C363.438 810.617 360.179 807.191 356.83 803.774C355.052 801.959 353.306 800.105 351.763 798.083C350.365 796.251 349.204 794.271 348.106 792.25C345.759 787.936 343.524 783.311 339.406 780.391C338.719 779.903 338.006 781.219 338.634 781.665Z" fill="#B4CCCE"/>
<path d="M414.818 888.213C412.632 879.732 409.16 871.671 406.42 863.369C404.643 857.988 403.274 852.488 402.229 846.92C401.098 840.903 400.324 834.811 399.999 828.697C399.674 822.548 399.799 816.342 400.75 810.25C401.594 804.844 403.117 799.411 405.992 794.712C406.327 794.164 406.682 793.63 407.052 793.106C406.724 793.152 406.397 793.2 406.067 793.247C407.842 795.747 408.555 798.746 409.047 801.725C409.556 804.791 409.946 807.847 410.787 810.847C411.708 814.127 412.901 817.319 414.021 820.534C415.187 823.885 416.218 827.271 416.96 830.743C418.432 837.616 418.986 844.668 418.918 851.69C418.859 857.87 418.397 864.003 417.287 870.084C416.156 876.267 414.63 882.378 413.627 888.583C413.572 888.921 413.791 889.316 414.161 889.321C414.556 889.328 414.802 888.919 414.858 888.578C415.764 882.976 417.102 877.451 418.177 871.88C418.701 869.165 419.188 866.438 419.499 863.689C419.873 860.364 420.031 857.001 420.114 853.658C420.291 846.589 419.916 839.49 418.625 832.53C417.985 829.077 417.121 825.67 416.031 822.332C414.936 818.98 413.665 815.688 412.602 812.326C412.028 810.513 411.502 808.679 411.15 806.809C410.836 805.135 410.617 803.444 410.348 801.762C409.812 798.415 409.06 795.019 407.064 792.209C406.777 791.804 406.308 792.027 406.082 792.35C402.873 796.886 401.06 802.265 399.979 807.672C398.763 813.753 398.476 820.001 398.651 826.188C398.826 832.457 399.509 838.71 400.564 844.89C401.479 850.248 402.662 855.574 404.22 860.783C406.746 869.225 410.301 877.32 412.792 885.774C413.101 886.827 413.393 887.885 413.667 888.948C413.76 889.308 414.187 889.396 414.474 889.223C414.82 889.015 414.912 888.575 414.818 888.213Z" fill="#B4CCCE"/>
<path d="M405.951 792.731C405.689 798.225 405.526 803.726 405.459 809.227C405.392 814.775 405.322 820.364 405.705 825.904C406.151 832.39 408.134 838.611 409.274 844.982C410.392 851.235 410.893 857.6 411.482 863.918C412.15 871.064 412.826 878.234 414.254 885.275C414.45 886.236 415.651 885.703 415.485 884.889C412.952 872.413 412.767 859.619 410.902 847.049C409.967 840.738 408.022 834.619 407.211 828.289C406.852 825.484 406.781 822.653 406.721 819.829C406.66 817.005 406.648 814.181 406.668 811.357C406.712 805.145 406.885 798.931 407.181 792.726C407.227 791.748 405.992 791.839 405.951 792.731Z" fill="#B4CCCE"/>
<path d="M396.275 862.214C385.885 862.896 375.197 862.656 365.081 859.977C356.583 857.728 348.021 855.032 340.205 850.958C335.888 848.709 331.722 845.939 328.403 842.347C328.263 842.758 328.123 843.17 327.984 843.581C332.958 842.737 338.044 844.159 342.863 845.258C345.267 845.806 347.667 846.275 350.116 846.56C352.732 846.865 355.333 847.278 357.91 847.822C362.461 848.785 366.894 850.184 371.288 851.695C375.478 853.137 379.63 854.7 383.676 856.508C387.929 858.408 392.239 860.551 395.806 863.593C396.443 864.136 397.165 862.818 396.579 862.318C393.408 859.612 389.63 857.627 385.875 855.862C381.754 853.925 377.502 852.276 373.209 850.765C368.841 849.227 364.429 847.774 359.912 846.729C357.383 846.144 354.825 845.681 352.253 845.328C349.695 844.976 347.164 844.673 344.637 844.118C339.151 842.911 333.488 841.19 327.827 842.15C327.371 842.228 327.093 843.046 327.407 843.385C333.528 850.008 342.061 853.979 350.411 857.007C359.366 860.255 368.611 862.86 378.132 863.648C384.111 864.142 390.127 864.089 396.108 863.696C396.874 863.647 397.11 862.16 396.275 862.214Z" fill="#B4CCCE"/>
<path d="M329.791 844.484C337.87 847.851 346.371 849.957 354.824 852.138C363.588 854.399 372.254 857.009 380.949 859.513C385.936 860.949 390.928 862.356 395.948 863.671C396.721 863.873 397.202 862.442 396.436 862.241C387.539 859.91 378.721 857.289 369.887 854.735C365.576 853.489 361.263 852.256 356.921 851.125C352.722 850.031 348.508 848.987 344.329 847.814C339.565 846.476 334.85 844.96 330.279 843.055C329.548 842.749 329.053 844.176 329.791 844.484Z" fill="#B4CCCE"/>
<path d="M415.701 891.251C405.311 886.901 393.951 886.209 383.031 883.949C377.326 882.768 371.597 881.793 365.77 881.489C362.883 881.339 359.988 881.341 357.101 881.504C354.432 881.657 351.775 881.975 349.112 882.205C343.571 882.682 337.544 883.137 332.747 886.239C332.271 886.547 332.204 887.327 332.734 887.597C337.858 890.209 343.867 889.78 349.163 891.897C351.736 892.926 354.129 894.34 356.622 895.543C359.141 896.757 361.787 897.728 364.449 898.579C369.986 900.349 375.801 901.583 381.628 901.735C387.141 901.878 392.682 900.887 397.99 899.467C404.109 897.833 410.071 895.536 415.688 892.61C416.383 892.249 416.069 890.885 415.225 891.324C410.258 893.912 405.004 895.971 399.627 897.536C394.388 899.06 388.93 900.182 383.456 900.263C377.761 900.347 372.061 899.266 366.617 897.665C363.924 896.872 361.261 895.943 358.683 894.833C356.126 893.732 353.728 892.303 351.201 891.137C348.305 889.801 345.307 889.131 342.176 888.611C339.114 888.102 336.015 887.593 333.222 886.169C333.218 886.621 333.215 887.072 333.21 887.526C337.439 884.79 342.731 884.245 347.63 883.802C353.047 883.313 358.435 882.729 363.885 882.9C369.629 883.078 375.329 883.883 380.952 885.044C386.388 886.165 391.866 886.993 397.335 887.935C403.42 888.985 409.497 890.288 415.213 892.681C415.943 892.986 416.44 891.561 415.701 891.251Z" fill="#B4CCCE"/>
<path d="M333.641 887.605C333.97 887.256 334.599 887.015 335.183 886.861C336.017 886.641 336.882 886.55 337.742 886.491C339.968 886.343 342.211 886.448 344.433 886.613C348.769 886.933 353.061 887.6 357.366 888.192C364.568 889.182 371.767 890.115 378.941 891.299C384.422 892.204 389.932 892.948 395.473 893.368C402.122 893.874 408.971 894.04 415.535 892.681C416.281 892.527 416.262 891.068 415.38 891.25C409.514 892.464 403.387 892.383 397.436 892.012C391.694 891.654 385.977 890.925 380.298 890.012C377.167 889.507 374.045 888.963 370.906 888.512C367.031 887.954 363.147 887.466 359.267 886.945C354.714 886.333 350.176 885.6 345.596 885.21C343.046 884.995 340.464 884.84 337.907 885.011C336.274 885.12 334.105 885.271 332.901 886.547C332.339 887.143 332.965 888.322 333.641 887.605Z" fill="#B4CCCE"/>
<path d="M-39.5825 726.613C-32.9469 719.878 -25.1245 714.382 -18.9768 707.156C-15.5961 703.181 -12.5601 698.886 -9.60448 694.592C-6.63141 690.273 -3.77736 685.874 -0.904676 681.488C1.94314 677.138 4.78207 672.771 7.85645 668.577C10.8715 664.462 14.0965 660.502 17.4721 656.678C23.8617 649.438 30.8095 642.744 37.958 636.263C44.1634 630.637 50.7796 624.852 58.5578 621.517C59.4432 621.138 60.3452 620.804 61.2648 620.518C60.8551 620.287 60.4474 620.056 60.0387 619.825C60.5803 621.322 60.3251 623.099 60.0189 624.632C59.6065 626.708 58.8932 628.726 58.1386 630.7C56.6762 634.524 54.7793 638.207 53.5188 642.104C52.6228 644.876 51.8147 647.673 50.8642 650.428C49.8689 653.311 48.7958 656.166 47.6316 658.985C45.321 664.583 42.6516 670.035 39.5726 675.251C33.7652 685.092 26.4885 693.976 17.893 701.508C9.85209 708.556 0.804057 714.406 -8.67711 719.322C-18.1868 724.253 -28.1558 728.259 -38.3135 731.642C-39.5494 732.054 -40.7889 732.456 -42.0302 732.85C-43.1724 733.213 -42.2291 734.916 -41.259 734.607C-30.8982 731.316 -20.6995 727.443 -10.933 722.656C-1.16617 717.867 8.15522 712.145 16.5737 705.239C25.3987 697.998 32.9661 689.44 39.1023 679.814C45.7933 669.321 50.6999 657.836 54.3781 645.968C55.0049 643.943 55.6147 641.952 56.421 639.99C57.246 637.983 58.1257 635.999 58.9507 633.992C59.817 631.886 60.6451 629.755 61.2738 627.564C61.8059 625.708 62.2488 623.772 62.1686 621.83C62.135 621.009 61.9992 620.227 61.7177 619.453C61.5637 619.026 60.953 618.617 60.4926 618.76C52.4198 621.281 45.5322 626.925 39.2694 632.413C32.1723 638.63 25.3008 645.153 18.9021 652.089C15.4342 655.847 12.1038 659.736 8.96572 663.774C5.77479 667.88 2.85146 672.172 -0.0166683 676.508C-5.86145 685.341 -11.4902 694.338 -17.9898 702.716C-20.9781 706.568 -24.2887 710.061 -27.8997 713.335C-31.4121 716.52 -35.0779 719.533 -38.5333 722.782C-39.4031 723.6 -40.2581 724.433 -41.0958 725.284C-41.8378 726.037 -40.3315 727.372 -39.5825 726.613Z" fill="#B4CCCE"/>
<path d="M60.5315 619.565C53.7795 627.961 48.1373 637.157 42.5384 646.34C36.9422 655.518 31.3447 664.742 24.6349 673.164C21.2577 677.402 17.5736 681.317 13.6628 685.061C9.52779 689.021 5.40237 692.991 1.18598 696.864C-3.02236 700.731 -7.32053 704.505 -11.7998 708.055C-15.9654 711.357 -20.3931 714.292 -24.5899 717.547C-32.5758 723.74 -40.0819 730.751 -48.933 735.732C-49.956 736.306 -50.9949 736.847 -52.054 737.35C-53.0572 737.827 -51.8017 739.393 -50.876 738.952C-41.7746 734.623 -34.1396 727.716 -26.3414 721.464C-22.2574 718.19 -17.954 715.248 -13.7783 712.099C-9.23714 708.674 -4.88057 705.008 -0.63938 701.22C3.62052 697.413 7.76682 693.482 11.8949 689.532C15.9044 685.698 19.9146 681.899 23.5236 677.676C30.5323 669.474 36.3108 660.33 41.9313 651.148C47.5565 641.957 53.0596 632.659 59.5751 624.058C60.3824 622.991 61.2064 621.937 62.045 620.893C62.7122 620.065 61.1971 618.739 60.5315 619.565Z" fill="#B4CCCE"/>
<path d="M-48.5768 788.229C-38.0036 781.221 -25.7988 777.399 -13.5261 774.611C-1.06003 771.779 11.6184 769.923 23.9791 766.619C30.4381 764.891 36.7717 762.718 42.9118 760.07C48.2584 757.764 53.2983 754.938 58.4567 752.262C62.7746 750.021 67.1825 747.948 71.6453 746.014C76.1137 744.077 80.6538 742.24 85.3218 740.834C89.7482 739.501 94.2616 739.031 98.8748 738.961C104.456 738.874 110.076 739.235 115.595 740.079C116.726 740.251 117.854 740.452 118.974 740.681C118.952 740.229 118.931 739.776 118.909 739.324C113.55 743.423 107.47 746.523 101.757 750.084C98.8695 751.884 96.1934 753.903 93.4641 755.929C90.1625 758.381 86.6783 760.687 82.7406 761.974C80.5481 762.69 78.253 763.111 75.9908 763.536C73.1451 764.071 70.2831 764.532 67.4141 764.921C64.8189 765.272 62.2068 765.587 59.5896 765.689C57.0153 765.789 54.4285 765.476 51.8593 765.352C43.9852 764.971 36.0515 764.942 28.2161 764.008C27.4258 763.914 27.0359 765.371 27.8115 765.463C34.827 766.299 41.9206 766.416 48.9737 766.715C51.9776 766.842 54.9932 767.149 57.9978 767.2C60.4138 767.24 62.8441 766.964 65.2396 766.678C70.5918 766.038 75.9948 765.211 81.2272 763.893C84.7211 763.012 87.9205 761.357 90.9099 759.372C94.0084 757.317 96.8384 754.893 99.9414 752.846C106.342 748.622 113.342 745.248 119.445 740.58C119.813 740.298 120.004 739.352 119.379 739.224C114.159 738.157 108.799 737.675 103.48 737.51C98.4749 737.355 93.3289 737.421 88.4221 738.525C83.9425 739.533 79.6019 741.206 75.3586 742.933C70.6521 744.848 66.0188 746.952 61.4622 749.201C56.7569 751.525 52.2304 754.189 47.4963 756.455C41.3222 759.412 34.9229 761.897 28.3707 763.881C15.9695 767.636 3.12915 769.585 -9.52407 772.264C-21.8108 774.866 -34.1073 778.183 -45.0761 784.475C-46.4493 785.263 -47.7937 786.097 -49.113 786.972C-49.7636 787.402 -49.3701 788.755 -48.5768 788.229Z" fill="#98D0A7"/>
<path d="M118.909 739.323C116.762 740.792 114.051 741.496 111.564 742.142C108.271 742.998 104.923 743.624 101.575 744.222C98.7189 744.734 95.8468 745.185 93.0085 745.789C88.7538 746.695 84.8219 748.468 80.8765 750.251C78.1137 751.5 75.3355 752.646 72.4526 753.583C69.8865 754.417 67.2948 755.172 64.6958 755.898C58.3598 757.668 51.9724 759.261 45.5574 760.717C40.2183 761.929 34.8337 763.128 29.3994 763.833C28.952 763.891 28.504 763.946 28.0542 763.991C27.2904 764.067 27.1384 765.563 27.973 765.479C33.0952 764.965 38.1759 763.819 43.1955 762.717C49.7102 761.287 56.192 759.698 62.629 757.95C67.786 756.552 73.008 755.147 77.9406 753.068C82.3684 751.203 86.6485 748.912 91.312 747.665C94.0383 746.936 96.8568 746.53 99.6327 746.043C102.986 745.453 106.339 744.85 109.657 744.086C112.484 743.436 115.403 742.721 118.009 741.413C118.504 741.164 118.988 740.894 119.445 740.58C120.088 740.141 119.694 738.785 118.909 739.323Z" fill="#98D0A7"/>
<path d="M-39.2517 782.555C-32.9528 785.227 -26.33 786.982 -19.852 789.148C-15.1247 790.729 -10.5273 792.626 -6.05954 794.834C-1.34735 797.164 3.22982 799.78 7.59173 802.714C12.0701 805.727 16.3694 809.081 20.1231 812.974C23.8194 816.806 27.0981 821.234 28.6991 826.368C28.8975 825.986 29.0962 825.606 29.2936 825.224C26.7264 825.128 24.3425 824.055 22.1099 822.866C19.793 821.633 17.5448 820.323 15.1025 819.344C9.64135 817.157 3.90794 815.789 -1.42647 813.263C-6.44512 810.886 -11.1499 807.887 -15.5663 804.53C-19.7438 801.354 -23.7418 797.921 -27.303 794.061C-31.156 789.885 -34.6807 785.413 -38.5813 781.282C-39.199 780.628 -40.0417 781.82 -39.5171 782.375C-35.9829 786.119 -32.7601 790.145 -29.3165 793.971C-25.7933 797.883 -21.9272 801.398 -17.7967 804.661C-13.3866 808.144 -8.69299 811.288 -3.6705 813.824C-1.15975 815.091 1.42483 816.208 4.07614 817.15C6.9797 818.182 9.94117 819.043 12.8384 820.092C14.364 820.646 15.8805 821.241 17.3291 821.975C18.6213 822.63 19.8738 823.357 21.149 824.043C23.6707 825.401 26.3049 826.604 29.2125 826.712C29.7752 826.734 29.9314 825.967 29.8069 825.567C28.3715 820.964 25.5845 816.873 22.3899 813.309C18.8206 809.329 14.6706 805.882 10.3173 802.795C1.98675 796.89 -7.268 792.017 -16.8871 788.576C-24.1701 785.97 -31.7153 784.126 -38.8469 781.101C-39.5679 780.795 -39.9871 782.244 -39.2517 782.555Z" fill="#98D0A7"/>
<path d="M29.6027 825.309C25.9777 822.247 22.2958 819.253 18.5627 816.324C14.8166 813.386 11.0436 810.379 7.02395 807.818C2.56055 804.974 -2.4363 803.161 -7.12034 800.735C-11.8601 798.281 -16.3618 795.368 -20.8783 792.532C-26.0303 789.299 -31.2002 786.058 -36.6745 783.389C-37.4327 783.02 -38.0579 784.373 -37.3731 784.707C-27.6652 789.439 -18.9554 795.917 -9.52271 801.138C-4.90494 803.694 0.0825605 805.506 4.66234 808.132C8.79939 810.502 12.5953 813.551 16.3569 816.467C20.61 819.764 24.7929 823.154 28.9042 826.626C29.5375 827.161 30.1886 825.803 29.6027 825.309Z" fill="#98D0A7"/>
<path d="M14.8856 768.141C17.8818 758.486 21.7679 748.935 27.4365 740.518C30.0478 736.641 32.9844 732.934 35.9557 729.327C39.0966 725.516 42.4236 721.829 46.1012 718.527C50.0603 714.972 54.4555 711.79 59.423 709.806C59.1904 709.516 58.9568 709.226 58.7242 708.936C57.7689 713.708 54.9063 717.834 52.235 721.801C50.879 723.815 49.5059 725.826 48.332 727.953C47.0496 730.278 45.8412 732.632 44.4475 734.895C41.8175 739.168 38.7612 743.128 35.5639 746.985C32.552 750.619 29.4341 754.173 26.121 757.536C22.5514 761.158 18.6862 764.822 14.1856 767.269C13.8456 767.454 13.632 767.809 13.7004 768.207C13.7523 768.507 14.0833 768.875 14.4235 768.691C18.4506 766.501 21.9435 763.416 25.2169 760.24C28.7618 756.801 32.0643 753.115 35.2442 749.338C38.4695 745.51 41.5893 741.594 44.322 737.394C47.1596 733.031 49.3591 728.315 52.2492 723.986C55.3001 719.417 58.7849 714.76 59.8854 709.258C59.9697 708.838 59.7504 708.162 59.1858 708.389C50.0693 712.026 42.764 719.334 36.5167 726.687C33.4068 730.349 30.4345 734.157 27.6387 738.063C24.6305 742.267 22.1066 746.803 19.9312 751.487C17.4772 756.774 15.4498 762.253 13.7234 767.818C13.4418 768.725 14.6055 769.044 14.8856 768.141Z" fill="#98D0A7"/>
<path d="M57.2323 710.325C51.0118 716.852 45.8365 724.245 40.6206 731.571C35.118 739.299 29.3143 746.803 23.5985 754.371C20.3239 758.706 17.0746 763.061 13.9049 767.474C13.6914 767.772 13.5838 768.213 13.8373 768.527C14.059 768.803 14.4983 768.774 14.7054 768.486C20.3368 760.643 26.2248 752.988 32.05 745.288C34.8763 741.552 37.6885 737.806 40.4128 733.995C43.025 730.342 45.5992 726.66 48.2851 723.06C51.3269 718.985 54.5217 715.022 58.033 711.338C58.602 710.74 57.9116 709.612 57.2323 710.325Z" fill="#98D0A7"/>
<path d="M-26.3067 776.771C-20.5235 770.559 -17.0361 762.731 -12.6069 755.589C-10.394 752.02 -8.27783 748.417 -6.57237 744.572C-5.72566 742.661 -4.96691 740.709 -4.31503 738.725C-3.66105 736.735 -3.1701 734.704 -2.61727 732.684C-1.41455 728.285 0.0934639 723.524 -0.921423 718.938C-1.04337 718.385 -1.53901 718.301 -1.92427 718.659C-5.04984 721.556 -6.30971 725.804 -9.08999 728.97C-10.553 730.635 -12.2844 732.029 -13.8718 733.57C-15.4499 735.101 -16.8806 736.796 -18.2219 738.536C-20.9424 742.064 -23.3231 745.91 -24.9452 750.07C-26.4603 753.954 -27.1806 758.151 -27.5532 762.287C-27.9767 767.006 -27.9047 771.791 -27.3085 776.492C-27.1856 777.469 -25.9994 776.846 -26.1015 776.036C-26.619 771.951 -26.714 767.812 -26.4415 763.705C-26.1741 759.672 -25.5673 755.612 -24.2831 751.769C-22.8941 747.615 -20.5706 743.754 -17.9599 740.259C-16.69 738.557 -15.3321 736.91 -13.863 735.375C-12.3766 733.823 -10.6956 732.476 -9.18785 730.945C-7.50397 729.235 -6.25809 727.262 -5.07571 725.188C-3.94818 723.211 -2.8113 721.234 -1.12555 719.673C-1.45995 719.579 -1.79418 719.486 -2.1284 719.394C-1.24743 723.379 -2.44961 727.517 -3.50164 731.349C-4.58524 735.298 -5.59743 739.22 -7.20545 742.999C-8.80196 746.751 -10.7692 750.333 -12.9287 753.787C-15.1059 757.267 -17.075 760.862 -19.1277 764.416C-21.4458 768.427 -23.9386 772.355 -27.1064 775.758C-27.6681 776.362 -26.9774 777.492 -26.3067 776.771Z" fill="#98D0A7"/>
<path d="M-2.29192 719.723C-1.90911 720.505 -2.31015 721.86 -2.59305 722.805C-3.07514 724.415 -3.74101 725.965 -4.44259 727.49C-5.83162 730.508 -7.4516 733.406 -9.01311 736.336C-11.5421 741.084 -14.0412 745.838 -16.704 750.514C-18.8144 754.217 -20.8113 757.99 -22.5773 761.871C-24.6711 766.471 -26.5569 771.281 -27.3189 776.302C-27.3702 776.642 -27.1027 777.023 -26.7465 777.009C-26.3371 776.992 -26.1428 776.569 -26.0911 776.226C-25.4062 771.716 -23.705 767.354 -21.8531 763.21C-20.089 759.261 -18.0778 755.424 -15.9481 751.662C-13.2932 746.971 -10.7591 742.228 -8.23225 737.468C-6.63336 734.459 -4.9614 731.489 -3.52492 728.396C-2.7041 726.629 -1.91587 724.818 -1.37641 722.942C-1.02941 721.734 -0.594357 720.127 -1.1839 718.923C-1.6015 718.068 -2.63568 719.021 -2.29192 719.723Z" fill="#98D0A7"/>
<path d="M-7.39349 773.144C1.18227 780.723 11.8679 785.136 21.6574 790.845C26.5816 793.717 31.5446 796.461 36.8165 798.651C39.4608 799.75 42.1588 800.717 44.9021 801.535C47.5782 802.333 50.3012 802.918 53.0117 803.581C59.0192 805.051 65.4912 806.936 71.6696 805.38C72.1263 805.264 72.344 804.456 72.0191 804.123C68.0494 800.043 62.3956 798.471 58.01 794.963C55.6521 793.077 53.6886 790.775 51.5499 788.656C49.4549 786.581 47.1599 784.706 44.7933 782.949C39.917 779.328 34.5812 776.162 28.862 774.07C23.5756 772.138 17.9021 771.299 12.3068 770.93C5.87446 770.505 -0.631262 770.756 -7.00425 771.74C-7.75982 771.857 -7.9069 773.357 -7.08422 773.229C-1.52293 772.37 4.13249 772.081 9.75501 772.292C15.3441 772.5 20.9947 773.188 26.3592 774.821C32.111 776.572 37.4661 779.586 42.371 783.023C44.7752 784.708 47.1024 786.521 49.2839 788.487C51.4621 790.452 53.3618 792.698 55.5008 794.702C57.8563 796.909 60.5251 798.511 63.3545 800.026C66.0894 801.49 68.897 802.97 71.0835 805.217C71.2 804.798 71.3156 804.379 71.4321 803.96C65.9827 805.333 60.1591 803.785 54.8511 802.479C52.1595 801.817 49.4436 801.243 46.7728 800.502C44.0725 799.752 41.4125 798.859 38.8044 797.835C33.5471 795.772 28.5216 793.174 23.6651 790.3C18.8537 787.453 13.8719 784.926 8.96313 782.255C3.44716 779.251 -1.97316 775.999 -6.69497 771.826C-7.31292 771.279 -7.96705 772.637 -7.39349 773.144Z" fill="#98D0A7"/>
<path d="M71.2088 803.675C69.9653 804.336 68.1391 803.825 66.8373 803.489C64.5944 802.909 62.4205 802.058 60.2891 801.157C56.1494 799.408 52.1735 797.326 48.1566 795.32C41.519 792.002 34.8651 788.743 28.3222 785.24C23.3231 782.566 18.2373 780.04 13.0254 777.804C6.69096 775.089 0.0332302 772.606 -6.84366 771.756C-7.63346 771.658 -8.02537 773.116 -7.24826 773.211C-1.09585 773.972 4.87316 776.065 10.5833 778.405C16.0452 780.643 21.3576 783.236 26.5722 785.997C29.4927 787.543 32.3911 789.126 35.3385 790.62C38.8487 792.4 42.3892 794.119 45.9155 795.869C50.1359 797.963 54.3009 800.167 58.6158 802.065C61.0364 803.129 63.5054 804.142 66.0587 804.843C67.6326 805.276 69.8884 805.922 71.4463 805.095C71.7881 804.914 71.9996 804.553 71.9315 804.157C71.8793 803.855 71.5495 803.494 71.2088 803.675Z" fill="#98D0A7"/>
<path d="M-12.7165 925.788C-12.3843 925.985 -12.0624 926.181 -11.746 926.375C-10.628 927.062 -9.57045 927.71 -8.26588 928.203C-6.46636 928.881 -4.36924 929.657 -2.26313 930.273C1.47914 931.366 5.36548 931.87 8.67433 932.219C12.2103 932.593 16.0446 932.865 20.0946 932.346C21.8531 932.12 23.6236 931.81 25.3364 931.511C27.5808 931.118 29.9033 930.711 32.2082 930.494C32.2476 930.49 32.2858 930.485 32.3224 930.476C36.0121 935.77 38.7905 940.948 40.8123 946.298C43.8874 954.436 45.4317 962.948 45.4243 971.636C46.0016 971.614 46.5772 971.581 47.1526 971.541C47.1376 968.847 46.9733 966.114 46.6531 963.378C48.1916 962.082 49.5127 960.543 50.7913 959.053C52.476 957.088 54.2189 955.057 56.4401 953.635C57.3492 953.054 58.26 952.477 59.171 951.901C62.9324 949.523 66.8202 947.062 70.425 944.277C74.8291 940.874 78.4501 937.543 81.4929 934.096C85.1305 929.975 87.8832 925.293 90.1777 921.227C91.6987 918.532 93.381 916.097 95.3181 913.78C97.0117 911.756 98.5879 909.724 99.2554 907.131C99.3235 906.867 99.2556 906.594 99.0697 906.381C98.8713 906.153 98.5564 906.031 98.2723 906.067C88.2737 907.222 79.7819 914.932 74.2639 920.63C70.8714 924.133 67.6823 927.977 64.7822 932.055C61.8531 936.177 59.4003 940.661 57.0281 944.995L55.9886 946.894C54.3792 949.842 52.716 952.888 50.5585 955.455C50.0638 956.044 49.5431 956.617 49.0235 957.191C48.2074 958.091 47.3694 959.015 46.6247 960.007C46.0279 947.903 49.6996 936.131 53.2524 924.735C53.8913 922.687 54.529 920.644 55.1403 918.604C56.6636 913.525 57.802 909.039 58.6184 904.893C61.2149 901.193 63.6771 897.317 66.0581 893.569L66.3119 893.169C66.8508 892.322 67.4105 891.476 67.9716 890.626C69.9372 887.656 71.9677 884.585 73.2354 881.231C74.9988 876.566 74.4163 871.589 73.7333 867.29C73.1388 863.554 72.5274 859.823 71.9168 856.09L71.0307 850.667C70.9799 850.354 70.7299 850.1 70.3791 850.004C70.2617 849.971 70.1468 849.96 70.0362 849.969C69.8157 849.985 69.6181 850.079 69.4838 850.24C64.4974 856.185 60.2679 861.688 59.0126 868.846C58.2093 873.421 58.3618 878.15 58.5098 882.726C58.6074 885.738 58.7083 888.852 58.5319 891.874C58.1005 899.269 56.6675 907.087 54.1509 915.773C54.0329 916.179 53.9139 916.586 53.7938 916.992C53.3233 914.109 52.4555 911.331 51.5648 908.728C50.1918 904.713 48.6368 900.857 46.94 897.266C45.749 894.745 44.2568 892.396 42.8144 890.124C41.8653 888.63 40.8844 887.086 40.0002 885.511C39.6876 884.954 39.3823 884.39 39.0769 883.827C37.4722 880.874 35.8143 877.82 33.1243 875.579C32.8829 875.377 32.5212 875.328 32.2184 875.451C31.9543 875.56 31.7808 875.79 31.7548 876.066C30.9728 884.461 34.3301 892.627 37.5391 899.62C41.1008 907.386 46.0256 914.359 52.5965 920.939C52.255 922.045 51.9101 923.15 51.5652 924.255C50.2541 928.456 48.8983 932.8 47.7632 937.136C46.1126 943.437 45.1907 948.864 44.9164 953.96C42.5913 944.806 38.4586 936.025 32.8723 928.405L32.6896 928.166C29.6027 923.981 26.1011 919.966 22.7146 916.082C21.225 914.375 19.687 912.61 18.2016 910.853C20.6933 900.115 20.3609 890.664 17.2144 882.758C15.5355 878.538 12.9436 874.83 9.5128 871.737C8.61048 870.923 7.65718 870.131 6.73464 869.364C3.82321 866.942 0.811157 864.44 -0.942039 860.964C-1.13783 860.576 -1.71394 860.409 -2.10066 860.522C-2.42273 860.616 -2.6079 860.894 -2.56942 861.276C-1.70554 869.847 -0.813647 878.71 1.9047 887.05C4.04154 893.608 7.67284 900.125 13.0073 906.974C15.6644 910.387 18.5487 913.698 21.336 916.899C23.543 919.434 25.8248 922.056 27.9776 924.706C28.3272 925.137 28.6732 925.57 29.0154 926.006C24.2557 924.011 18.492 923.842 13.7749 923.705C5.38275 923.458 -3.55021 923.306 -12.414 924.365C-12.7609 924.407 -13.0298 924.644 -13.0996 924.968C-13.1668 925.288 -13.0159 925.609 -12.7165 925.788Z" fill="#FBFBFB"/>
<path d="M-83.3342 868.174C-77.0283 870.482 -71.3409 874.146 -66.0987 878.299C-60.7546 882.532 -55.8353 887.263 -50.7964 891.846C-45.5178 896.647 -40.0788 901.255 -34.0407 905.084C-30.7095 907.197 -27.2404 909.094 -23.6629 910.759C-20.3791 912.287 -16.9898 913.589 -13.7603 915.235C-10.5264 916.882 -7.51242 918.902 -5.12749 921.668C-2.66149 924.529 -0.886389 927.895 0.724791 931.291C1.13281 932.148 1.53056 933.011 1.92733 933.874C2.16539 933.488 2.40268 933.104 2.63975 932.719C-1.24003 931.602 -5.11904 930.484 -8.99882 929.367C-12.4211 928.381 -15.9813 927.549 -19.1897 925.962C-22.3863 924.381 -24.7401 921.93 -26.7349 919.015C-28.649 916.217 -30.3836 913.284 -32.1904 910.416C-34.2311 907.176 -36.2669 903.929 -38.1541 900.596C-38.6232 899.769 -39.6183 900.755 -39.2323 901.436C-37.5072 904.481 -35.6576 907.455 -33.7958 910.418C-31.9496 913.357 -30.1365 916.326 -28.2373 919.232C-26.3042 922.188 -24.0601 924.923 -20.9582 926.708C-17.8921 928.471 -14.421 929.376 -11.0464 930.348C-6.60143 931.628 -2.1553 932.908 2.29083 934.188C2.89599 934.363 3.2042 933.47 3.00403 933.033C1.42569 929.602 -0.177928 926.16 -2.32017 923.035C-4.41383 919.98 -7.06069 917.461 -10.2086 915.513C-13.3253 913.584 -16.7298 912.184 -20.0823 910.727C-23.6669 909.167 -27.1694 907.446 -30.5449 905.473C-36.9324 901.742 -42.7047 897.177 -48.2038 892.251C-53.3418 887.647 -58.2978 882.834 -63.6189 878.439C-68.8099 874.15 -74.3887 870.273 -80.6129 867.64C-81.3953 867.309 -82.1852 866.997 -82.9831 866.706C-83.72 866.436 -84.0846 867.9 -83.3342 868.174Z" fill="#FFDBC2"/>
<path d="M0.272699 930.927C-2.44264 929.968 -4.46993 927.838 -6.43563 925.828C-7.44704 924.795 -8.46694 923.765 -9.58528 922.847C-10.8363 921.82 -12.203 920.948 -13.5973 920.131C-16.2739 918.563 -18.9925 917.112 -21.5304 915.317C-24.0731 913.52 -26.5036 911.56 -28.8427 909.505C-31.3987 907.261 -33.8588 904.894 -36.1413 902.369C-36.7423 901.704 -37.548 902.93 -37.0361 903.497C-32.8762 908.098 -28.1607 912.288 -23.1594 915.955C-20.6227 917.815 -17.9376 919.37 -15.2054 920.922C-13.7355 921.756 -12.2773 922.624 -10.9279 923.645C-9.75249 924.535 -8.70142 925.559 -7.66982 926.609C-5.42084 928.899 -3.17848 931.301 -0.0782095 932.396C0.664408 932.658 1.02653 931.193 0.272699 930.927Z" fill="#FFDBC2"/>
<path d="M473.902 313.988C473.77 313.513 473.647 313.047 473.528 312.588C473.105 310.966 472.705 309.433 471.939 307.825C470.882 305.608 469.637 303.038 468.242 300.607C465.762 296.289 462.63 292.385 459.891 289.136C456.964 285.663 453.674 282.019 449.484 278.913C447.664 277.565 445.759 276.284 443.917 275.044C441.502 273.42 439.003 271.739 436.688 269.899C436.648 269.868 436.608 269.839 436.567 269.815C437.853 261.674 439.876 254.446 442.748 247.729C447.116 237.513 453.226 228.306 460.921 220.31C460.37 219.82 459.81 219.341 459.245 218.869C456.875 221.363 454.608 224.026 452.482 226.83C449.918 226.662 447.34 226.91 444.843 227.151C441.553 227.47 438.15 227.798 434.846 227.143C433.494 226.874 432.145 226.599 430.796 226.323C425.227 225.186 419.469 224.012 413.684 223.387C406.616 222.625 400.334 222.488 394.481 222.971C387.484 223.547 380.805 225.424 375.094 227.139C371.309 228.275 367.604 229.029 363.77 229.449C360.419 229.815 357.169 230.291 354.259 232.089C353.963 232.272 353.784 232.584 353.767 232.945C353.748 233.33 353.93 233.721 354.224 233.939C364.455 241.722 379.099 242.136 389.223 241.771C395.448 241.546 401.787 240.827 408.067 239.637C414.412 238.433 420.639 236.474 426.659 234.58L429.297 233.752C433.388 232.46 437.615 231.126 441.874 230.671C442.85 230.567 443.837 230.5 444.823 230.431C446.372 230.323 447.961 230.214 449.525 229.96C439.364 241.636 425.566 249.23 412.209 256.582C409.808 257.903 407.413 259.22 405.044 260.559C399.147 263.889 394.129 267.013 389.709 270.109C384.042 271.22 378.345 272.611 372.836 273.956L372.248 274.1C371.002 274.404 369.738 274.687 368.469 274.974C364.03 275.97 359.443 277.002 355.307 278.97C349.555 281.706 345.687 286.805 342.512 291.369C339.754 295.336 337.015 299.314 334.274 303.293L330.292 309.072C330.062 309.404 330.067 309.86 330.305 310.259C330.385 310.393 330.481 310.505 330.59 310.595C330.808 310.775 331.073 310.863 331.339 310.834C341.192 309.771 349.957 308.445 357.448 302.962C362.236 299.459 366.281 294.968 370.193 290.623C372.768 287.763 375.431 284.805 378.268 282.178C385.209 275.748 393.447 269.815 403.45 264.042C403.919 263.772 404.389 263.502 404.859 263.235C402.74 266.307 401.081 269.634 399.599 272.819C397.31 277.732 395.33 282.66 393.716 287.468C392.582 290.844 391.878 294.329 391.196 297.697C390.748 299.913 390.285 302.204 389.706 304.437C389.501 305.227 389.284 306.016 389.066 306.805C387.931 310.945 386.756 315.225 387.25 319.669C387.294 320.069 387.584 320.434 387.972 320.588C388.311 320.722 388.674 320.664 388.943 320.432C397.092 313.392 401.225 302.9 404.458 293.619C408.049 283.315 409.683 272.534 409.454 260.659C410.747 259.942 412.043 259.23 413.338 258.518C418.263 255.808 423.356 253.006 428.238 250.018C435.334 245.674 440.985 241.492 445.747 237.041C439.789 247.529 435.826 259.274 434.228 271.236L434.185 271.617C433.325 278.204 432.996 285.001 432.679 291.575C432.54 294.465 432.396 297.451 432.209 300.385C420.411 308.07 412.355 317.069 408.257 327.135C406.069 332.508 405.175 338.217 405.598 344.101C405.709 345.649 405.886 347.222 406.057 348.746C406.596 353.552 407.156 358.523 405.695 363.275C405.532 363.806 405.915 364.469 406.371 364.707C406.751 364.906 407.167 364.814 407.47 364.428C414.258 355.769 421.28 346.817 426.156 336.729C429.991 328.798 432.413 319.582 433.561 308.553C434.133 303.059 434.407 297.457 434.672 292.042C434.882 287.754 435.1 283.321 435.463 278.974C435.522 278.268 435.587 277.563 435.657 276.859C438.276 282.908 443.435 288.164 447.658 292.464C455.17 300.118 463.263 308.162 472.364 315.031C472.721 315.299 473.178 315.319 473.529 315.082C473.874 314.846 474.019 314.417 473.902 313.988Z" fill="#FFDBC2"/>
</g>
<defs>
<clipPath id="clip0_538_1256">
<rect width="428" height="926" fill="white"/>
</clipPath>
</defs>
</svg>
