<svg width="471" height="134" viewBox="0 0 471 134" fill="none" xmlns="http://www.w3.org/2000/svg">
<path d="M467 43.1369L467 127L39 127L39 58.4299C63.6697 45.4954 91.9571 37.5472 116.477 36.6241C130.094 36.1116 146.377 38.3514 160.878 40.3459C169.739 41.5646 177.934 42.6918 184.448 43.0436C185.027 43.0748 185.603 43.106 186.174 43.1369C225.506 45.2643 247.758 46.4679 279.353 31.8004C301.728 21.4144 326.741 17.836 354.5 20C359.835 20.4161 393.5 25.8004 412 31.8004C430.5 37.8004 456.981 41.5302 467 43.1369C462.322 42.4109 472.283 43.9838 467 43.1369C456.489 40.9473 479.842 45.1299 467 43.1369Z" fill="#395747"/>
<path d="M0.577492 62.9642C0.889531 63.2961 1.19003 63.6236 1.48503 63.9466C2.52774 65.0877 3.51405 66.1666 4.82837 67.1848C6.64162 68.5883 8.75934 70.2092 10.9378 71.6713C14.8094 74.2672 19.0297 76.3229 22.6485 77.9909C26.5155 79.7742 30.7506 81.5735 35.4799 82.6539C37.5335 83.1224 39.6274 83.51 41.6525 83.8864C44.3068 84.3778 47.0532 84.8872 49.7198 85.5817C49.7656 85.5929 49.8103 85.6028 49.8544 85.6081C52.3352 92.4519 53.8256 98.8157 54.4087 105.054C55.2957 114.543 54.3385 123.804 51.5766 132.629C52.2344 132.835 52.8935 133.03 53.5548 133.218C54.3915 130.475 55.0725 127.633 55.5789 124.726C57.7235 124.02 59.7002 122.981 61.6135 121.975C64.1351 120.647 66.7432 119.276 69.6974 118.713C70.9063 118.483 72.1157 118.259 73.3249 118.035C78.3181 117.112 83.4798 116.155 88.4254 114.757C94.4677 113.048 99.6045 111.102 104.126 108.807C109.532 106.065 114.119 102.4 117.994 99.18C120.562 97.0466 123.23 95.2399 126.147 93.6553C128.698 92.2712 131.118 90.8327 132.692 88.4626C132.853 88.2214 132.863 87.9173 132.721 87.6266C132.569 87.3163 132.253 87.0678 131.921 86.9914C120.286 84.1959 108.272 88.6571 100.247 92.2557C95.3127 94.468 90.5 97.1077 85.9388 100.1C81.3312 103.125 77.1457 106.706 73.0983 110.168L71.325 111.684C68.5768 114.041 65.7367 116.475 62.4913 118.227C61.7474 118.629 60.9789 119.004 60.2114 119.381C59.0062 119.972 57.7689 120.578 56.6152 121.29C59.7785 108.756 67.6476 98.2529 75.2636 88.0852C76.6328 86.258 77.999 84.4357 79.3347 82.6052C82.6612 78.0497 85.366 73.944 87.6 70.0561C91.6993 67.327 95.7026 64.3672 99.5742 61.5045L99.9869 61.1988C100.863 60.5518 101.762 59.9148 102.664 59.274C105.82 57.0369 109.082 54.7228 111.574 51.8181C115.04 47.779 115.961 42.4907 116.553 37.8518C117.067 33.8205 117.561 29.7863 118.056 25.7513L118.776 19.8901C118.817 19.5524 118.616 19.1945 118.251 18.9575C118.129 18.8781 118.003 18.8211 117.876 18.7861C117.622 18.7151 117.37 18.7319 117.167 18.8418C109.663 22.9022 103.152 26.8143 99.4685 33.5891C97.1134 37.9177 95.7863 42.7836 94.5031 47.4906C93.6585 50.5897 92.7852 53.794 91.6287 56.7941C88.7988 64.1361 84.706 71.5101 79.1168 79.3357C78.8549 79.7022 78.5919 80.0685 78.3278 80.4334C78.7113 77.3167 78.6138 74.1497 78.4348 71.1518C78.1597 66.5273 77.6292 61.9922 76.8547 57.6708C76.3113 54.6367 75.3741 51.657 74.4682 48.7766C73.872 46.8819 73.2559 44.9234 72.7586 42.9717C72.5828 42.2818 72.4171 41.5884 72.2515 40.8949C71.3789 37.2572 70.478 33.4963 68.1566 30.1511C67.9483 29.8506 67.5562 29.657 67.1759 29.662C66.8438 29.6676 66.5755 29.8321 66.4585 30.1029C62.9166 38.3215 64.1126 47.9505 65.513 56.3302C67.0663 65.6336 70.4071 74.6734 75.7276 83.9676C74.992 84.956 74.2532 85.9415 73.5143 86.9271C70.705 90.6751 67.8001 94.5508 65.1468 98.5047C61.2893 104.252 58.5305 109.399 56.6062 114.468C56.8867 104.245 55.0116 93.6827 51.1305 83.7227L51.0002 83.4076C48.8473 77.9301 46.1735 72.4599 43.5874 67.1699C42.4496 64.8437 41.2753 62.4405 40.1581 60.0652C46.3696 50.1444 48.9902 40.4106 47.9494 31.1293C47.3947 26.1748 45.6485 21.3783 42.7619 16.8741C42.0028 15.6891 41.1794 14.5058 40.3828 13.36C37.8687 9.74404 35.2671 6.00548 34.3925 1.77856C34.295 1.30588 33.6985 0.907963 33.2267 0.869456C32.8341 0.836541 32.5373 1.04535 32.4595 1.44915C30.7169 10.4998 28.9132 19.8588 29.3338 29.4116C29.6637 36.9231 31.6911 44.986 35.5329 54.0623C37.4461 58.5845 39.6476 63.0937 41.7745 67.4528C43.4587 70.9044 45.1996 74.4736 46.786 78.0212C47.0436 78.5974 47.2962 79.1749 47.5439 79.7537C42.8114 75.8375 36.3687 73.3776 31.0957 71.3652C21.7153 67.7828 11.6951 64.0822 1.36934 61.6387C0.965078 61.5436 0.586863 61.6776 0.405612 61.979C0.228308 62.2779 0.296609 62.6639 0.577492 62.9642Z" fill="#FFDBC2"/>
</svg>
